ffmpeg version 7.1.3-0+deb13u1+rpt1 Copyright (c) 2000-2025 the FFmpeg developers
  built with gcc 14 (Debian 14.2.0-19)
  configuration: --prefix=/usr --extra-version=0+deb13u1+rpt1 --toolchain=hardened --incdir=/usr/include/aarch64-linux-gnu --enable-gpl --disable-stripping --disable-libmfx --disable-mmal --disable-omx --enable-gnutls --enable-libaom --enable-libass --enable-libbs2b --enable-libcdio --enable-libcodec2 --enable-libdav1d --enable-libflite --enable-libfontconfig --enable-libfreetype --enable-libfribidi --enable-libglslang --enable-libgme --enable-libgsm --enable-libharfbuzz --enable-libmp3lame --enable-libmysofa --enable-libopenjpeg --enable-libopenmpt --enable-libopus --enable-librubberband --enable-libshine --enable-libsnappy --enable-libsoxr --enable-libspeex --enable-libtheora --enable-libtwolame --enable-libvidstab --enable-libvorbis --enable-libvpx --enable-libwebp --enable-libx265 --enable-libxml2 --enable-libxvid --enable-libzimg --enable-openal --enable-opencl --enable-opengl --disable-sndio --disable-libvpl --libdir=/usr/lib/aarch64-linux-gnu --arch=arm64 --enable-neon --enable-v4l2-request --enable-libudev --enable-epoxy --enable-libdc1394 --enable-libdrm --enable-libiec61883 --enable-vout-drm --enable-chromaprint --enable-frei0r --enable-ladspa --enable-libbluray --enable-libcaca --enable-libdvdnav --enable-libdvdread --enable-libjack --enable-libpulse --enable-librabbitmq --enable-librist --enable-libsrt --enable-libssh --enable-libsvtav1 --enable-libx264 --enable-libzmq --enable-libzvbi --enable-lv2 --enable-sand --enable-sdl2 --enable-libplacebo --enable-librav1e --enable-pocketsphinx --enable-librsvg --enable-libjxl --enable-shared
  libavutil      59. 39.100 / 59. 39.100
  libavcodec     61. 19.101 / 61. 19.101
  libavformat    61.  7.100 / 61.  7.100
  libavdevice    61.  3.100 / 61.  3.100
  libavfilter    10.  4.100 / 10.  4.100
  libswscale      8.  3.100 /  8.  3.100
  libswresample   5.  3.100 /  5.  3.100
  libpostproc    58.  3.100 / 58.  3.100
Input #0, png_pipe, from 'projects/beat-manager/assets/ronald/coverart_MIX1.png':
  Duration: N/A, bitrate: N/A
  Stream #0:0: Video: png, rgba(pc, gbr/bt709/iec61966-2-1), 3000x3000 [SAR 2835:2835 DAR 1:1], 25 fps, 25 tbr, 25 tbn
[aist#1:0/pcm_s16le @ 0x5555850f7e00] Guessed Channel Layout: stereo
Input #1, wav, from 'projects/beat-manager/assets/ronald/r7 - ronald v1 (mixtape).wav':
  Duration: 00:02:17.90, bitrate: 1536 kb/s
  Stream #1:0: Audio: pcm_s16le ([1][0][0][0] / 0x0001), 48000 Hz, stereo, s16, 1536 kb/s
Stream mapping:
  Stream #0:0 -> #0:0 (png (native) -> h264 (libx264))
  Stream #1:0 -> #0:1 (pcm_s16le (native) -> aac (native))
Press [q] to stop, [?] for help
[libx264 @ 0x5555850f3f10] using SAR=1/1
[libx264 @ 0x5555850f3f10] using cpu capabilities: ARMv8 NEON
[libx264 @ 0x5555850f3f10] profile High, level 4.0, 4:2:0, 8-bit
[libx264 @ 0x5555850f3f10] 264 - core 164 r3108 31e19f9 - H.264/MPEG-4 AVC codec - Copyleft 2003-2023 - http://www.videolan.org/x264.html - options: cabac=1 ref=3 deblock=1:0:0 analyse=0x3:0x113 me=hex subme=7 psy=1 psy_rd=1.00:0.00 mixed_ref=1 me_range=16 chroma_me=1 trellis=1 8x8dct=1 cqm=0 deadzone=21,11 fast_pskip=1 chroma_qp_offset=-2 threads=6 lookahead_threads=1 sliced_threads=0 nr=0 decimate=1 interlaced=0 bluray_compat=0 constrained_intra=0 bframes=3 b_pyramid=2 b_adapt=1 b_bias=0 direct=1 weightb=1 open_gop=0 weightp=2 keyint=250 keyint_min=25 scenecut=40 intra_refresh=0 rc_lookahead=40 rc=crf mbtree=1 crf=18.0 qcomp=0.60 qpmin=0 qpmax=69 qpstep=4 ip_ratio=1.40 aq=1:1.00
Output #0, mp4, to 'projects/beat-manager/temp_videos/ronald_r7_clean.mp4':
  Metadata:
    encoder         : Lavf61.7.100
  Stream #0:0: Video: h264 (avc1 / 0x31637661), yuv420p(tv, unknown/bt709/iec61966-2-1, progressive), 1920x1080 [SAR 1:1 DAR 16:9], q=2-31, 25 fps, 12800 tbn
      Metadata:
        encoder         : Lavc61.19.101 libx264
      Side data:
        cpb: bitrate max/min/avg: 0/0/0 buffer size: 0 vbv_delay: N/A
  Stream #0:1: Audio: aac (LC) (mp4a / 0x6134706D), 48000 Hz, stereo, fltp, 320 kb/s
      Metadata:
        encoder         : Lavc61.19.101 aac
frame=    0 fps=0.0 q=0.0 size=       0KiB time=N/A bitrate=N/A speed=N/A    frame=    0 fps=0.0 q=0.0 size=       0KiB time=N/A bitrate=N/A speed=N/A    frame=    0 fps=0.0 q=0.0 size=       0KiB time=N/A bitrate=N/A speed=N/A    frame=    0 fps=0.0 q=0.0 size=       0KiB time=N/A bitrate=N/A speed=N/A    frame=    0 fps=0.0 q=0.0 size=       0KiB time=N/A bitrate=N/A speed=N/A    frame=    0 fps=0.0 q=0.0 size=       0KiB time=N/A bitrate=N/A speed=N/A    frame=    0 fps=0.0 q=0.0 size=       0KiB time=N/A bitrate=N/A speed=N/A    frame=   10 fps=2.5 q=23.0 size=     256KiB time=00:00:00.32 bitrate=6554.8kbits/s speed=0.0798x    frame=   18 fps=4.0 q=23.0 size=     256KiB time=00:00:00.64 bitrate=3277.4kbits/s speed=0.142x    frame=   28 fps=5.6 q=23.0 size=     256KiB time=00:00:01.04 bitrate=2016.9kbits/s speed=0.207x    frame=   34 fps=6.2 q=23.0 size=     512KiB time=00:00:01.28 bitrate=3277.1kbits/s speed=0.232x    frame=   41 fps=6.8 q=23.0 size=     512KiB time=00:00:01.56 bitrate=2688.9kbits/s speed=0.259x    frame=   47 fps=7.2 q=23.0 size=     512KiB time=00:00:01.80 bitrate=2330.4kbits/s speed=0.276x    frame=   53 fps=7.5 q=23.0 size=     512KiB time=00:00:02.04 bitrate=2056.2kbits/s speed=0.291x    frame=   61 fps=8.1 q=23.0 size=     512KiB time=00:00:02.36 bitrate=1777.4kbits/s speed=0.314x    frame=   68 fps=8.5 q=23.0 size=     512KiB time=00:00:02.64 bitrate=1588.9kbits/s speed=0.329x    frame=   75 fps=8.8 q=23.0 size=     512KiB time=00:00:02.92 bitrate=1436.5kbits/s speed=0.343x    frame=   82 fps=9.1 q=23.0 size=     512KiB time=00:00:03.20 bitrate=1310.8kbits/s speed=0.354x    frame=   87 fps=9.1 q=23.0 size=     512KiB time=00:00:03.40 bitrate=1233.7kbits/s speed=0.357x    frame=   90 fps=9.0 q=23.0 size=     512KiB time=00:00:03.52 bitrate=1191.7kbits/s speed=0.351x    frame=   96 fps=9.1 q=23.0 size=     512KiB time=00:00:03.76 bitrate=1115.6kbits/s speed=0.357x    frame=  102 fps=9.2 q=23.0 size=     512KiB time=00:00:04.00 bitrate=1048.7kbits/s speed=0.362x    frame=  108 fps=9.3 q=23.0 size=     512KiB time=00:00:04.24 bitrate= 989.3kbits/s speed=0.366x    frame=  114 fps=9.4 q=23.0 size=     512KiB time=00:00:04.48 bitrate= 936.3kbits/s speed=0.371x    frame=  119 fps=9.5 q=23.0 size=     512KiB time=00:00:04.68 bitrate= 896.3kbits/s speed=0.372x    frame=  124 fps=9.5 q=23.0 size=     512KiB time=00:00:04.92 bitrate= 852.6kbits/s speed=0.376x    frame=  130 fps=9.6 q=23.0 size=     512KiB time=00:00:05.12 bitrate= 819.3kbits/s speed=0.377x    frame=  135 fps=9.6 q=23.0 size=     512KiB time=00:00:05.32 bitrate= 788.5kbits/s speed=0.377x    frame=  141 fps=9.7 q=23.0 size=     512KiB time=00:00:05.56 bitrate= 754.4kbits/s speed=0.381x    frame=  149 fps=9.9 q=23.0 size=     512KiB time=00:00:05.88 bitrate= 713.4kbits/s speed=0.39x    frame=  157 fps= 10 q=23.0 size=     512KiB time=00:00:06.20 bitrate= 676.6kbits/s speed=0.397x    frame=  164 fps= 10 q=23.0 size=     512KiB time=00:00:06.48 bitrate= 647.3kbits/s speed=0.402x    frame=  171 fps= 10 q=23.0 size=     512KiB time=00:00:06.76 bitrate= 620.5kbits/s speed=0.407x    frame=  178 fps= 10 q=23.0 size=     512KiB time=00:00:07.04 bitrate= 595.8kbits/s speed=0.412x    frame=  185 fps= 11 q=23.0 size=     768KiB time=00:00:07.32 bitrate= 859.5kbits/s speed=0.416x    frame=  192 fps= 11 q=23.0 size=     768KiB time=00:00:07.60 bitrate= 827.9kbits/s speed=0.42x    frame=  200 fps= 11 q=23.0 size=     768KiB time=00:00:07.92 bitrate= 794.4kbits/s speed=0.426x    frame=  207 fps= 11 q=23.0 size=     768KiB time=00:00:08.20 bitrate= 767.3kbits/s speed=0.429x    frame=  215 fps= 11 q=23.0 size=     768KiB time=00:00:08.52 bitrate= 738.5kbits/s speed=0.435x    frame=  221 fps= 11 q=23.0 size=     768KiB time=00:00:08.76 bitrate= 718.2kbits/s speed=0.436x    frame=  229 fps= 11 q=23.0 size=     768KiB time=00:00:09.08 bitrate= 692.9kbits/s speed=0.441x    frame=  236 fps= 11 q=23.0 size=     768KiB time=00:00:09.36 bitrate= 672.2kbits/s speed=0.443x    frame=  243 fps= 11 q=23.0 size=     768KiB time=00:00:09.64 bitrate= 652.7kbits/s speed=0.446x    frame=  244 fps= 11 q=23.0 size=     768KiB time=00:00:09.68 bitrate= 650.0kbits/s speed=0.438x    frame=  244 fps= 11 q=23.0 size=     768KiB time=00:00:09.68 bitrate= 650.0kbits/s speed=0.428x    frame=  244 fps= 11 q=23.0 size=     768KiB time=00:00:09.68 bitrate= 650.0kbits/s speed=0.419x    frame=  244 fps= 10 q=23.0 size=     768KiB time=00:00:09.68 bitrate= 650.0kbits/s speed=0.41x    frame=  244 fps= 10 q=23.0 size=     768KiB time=00:00:09.68 bitrate= 650.0kbits/s speed=0.401x    frame=  244 fps=9.9 q=23.0 size=     768KiB time=00:00:09.68 bitrate= 650.0kbits/s speed=0.393x    frame=  244 fps=9.7 q=23.0 size=     768KiB time=00:00:09.68 bitrate= 650.0kbits/s speed=0.385x    frame=  244 fps=9.5 q=23.0 size=     768KiB time=00:00:09.68 bitrate= 650.0kbits/s speed=0.378x    frame=  244 fps=9.3 q=23.0 size=     768KiB time=00:00:09.68 bitrate= 650.0kbits/s speed=0.371x    frame=  244 fps=9.2 q=23.0 size=     768KiB time=00:00:09.68 bitrate= 650.0kbits/s speed=0.364x    frame=  244 fps=9.0 q=23.0 size=     768KiB time=00:00:09.68 bitrate= 650.0kbits/s speed=0.357x    frame=  244 fps=8.8 q=23.0 size=     768KiB time=00:00:09.68 bitrate= 650.0kbits/s speed=0.35x    frame=  244 fps=8.7 q=23.0 size=     768KiB time=00:00:09.68 bitrate= 650.0kbits/s speed=0.344x    frame=  244 fps=8.5 q=23.0 size=     768KiB time=00:00:09.68 bitrate= 650.0kbits/s speed=0.338x    frame=  244 fps=8.4 q=23.0 size=     768KiB time=00:00:09.68 bitrate= 650.0kbits/s speed=0.332x    frame=  244 fps=8.2 q=23.0 size=     768KiB time=00:00:09.68 bitrate= 650.0kbits/s speed=0.327x    frame=  244 fps=8.1 q=23.0 size=     768KiB time=00:00:09.68 bitrate= 650.0kbits/s speed=0.321x    frame=  244 fps=8.0 q=23.0 size=     768KiB time=00:00:09.68 bitrate= 650.0kbits/s speed=0.316x    frame=  244 fps=7.8 q=23.0 size=     768KiB time=00:00:09.68 bitrate= 650.0kbits/s speed=0.311x    frame=  244 fps=7.7 q=23.0 size=     768KiB time=00:00:09.68 bitrate= 650.0kbits/s speed=0.306x    frame=  244 fps=7.6 q=23.0 size=     768KiB time=00:00:09.68 bitrate= 650.0kbits/s speed=0.301x    frame=  244 fps=7.5 q=23.0 size=     768KiB time=00:00:09.68 bitrate= 650.0kbits/s speed=0.297x    frame=  244 fps=7.4 q=23.0 size=     768KiB time=00:00:09.68 bitrate= 650.0kbits/s speed=0.292x    frame=  244 fps=7.3 q=23.0 size=     768KiB time=00:00:09.68 bitrate= 650.0kbits/s speed=0.288x    frame=  250 fps=7.3 q=23.0 size=     768KiB time=00:00:09.92 bitrate= 634.3kbits/s speed=0.291x    frame=  256 fps=7.4 q=23.0 size=    1280KiB time=00:00:10.16 bitrate=1032.1kbits/s speed=0.293x    frame=  265 fps=7.5 q=23.0 size=    1280KiB time=00:00:10.52 bitrate= 996.8kbits/s speed=0.299x    frame=  274 fps=7.7 q=23.0 size=    1280KiB time=00:00:10.88 bitrate= 963.8kbits/s speed=0.305x    frame=  282 fps=7.8 q=23.0 size=    1280KiB time=00:00:11.20 bitrate= 936.3kbits/s speed=0.31x    frame=  290 fps=7.9 q=23.0 size=    1280KiB time=00:00:11.52 bitrate= 910.3kbits/s speed=0.314x    frame=  296 fps=8.0 q=23.0 size=    1280KiB time=00:00:11.76 bitrate= 891.7kbits/s speed=0.317x    frame=  304 fps=8.1 q=23.0 size=    1280KiB time=00:00:12.08 bitrate= 868.1kbits/s speed=0.321x    frame=  312 fps=8.2 q=23.0 size=    1280KiB time=00:00:12.40 bitrate= 845.7kbits/s speed=0.325x    frame=  320 fps=8.3 q=23.0 size=    1280KiB time=00:00:12.72 bitrate= 824.4kbits/s speed=0.329x    frame=  326 fps=8.3 q=23.0 size=    1536KiB time=00:00:12.96 bitrate= 970.9kbits/s speed=0.331x    frame=  336 fps=8.5 q=23.0 size=    1536KiB time=00:00:13.36 bitrate= 941.9kbits/s speed=0.337x    frame=  342 fps=8.5 q=23.0 size=    1536KiB time=00:00:13.60 bitrate= 925.2kbits/s speed=0.339x    frame=  349 fps=8.6 q=23.0 size=    1536KiB time=00:00:13.88 bitrate= 906.6kbits/s speed=0.341x    frame=  356 fps=8.7 q=23.0 size=    1536KiB time=00:00:14.16 bitrate= 888.7kbits/s speed=0.344x    frame=  364 fps=8.7 q=23.0 size=    1536KiB time=00:00:14.48 bitrate= 869.0kbits/s speed=0.348x    frame=  372 fps=8.8 q=23.0 size=    1536KiB time=00:00:14.80 bitrate= 850.2kbits/s speed=0.351x    frame=  380 fps=8.9 q=23.0 size=    1536KiB time=00:00:15.12 bitrate= 832.2kbits/s speed=0.354x    frame=  386 fps=8.9 q=23.0 size=    1536KiB time=00:00:15.36 bitrate= 819.2kbits/s speed=0.356x    frame=  394 fps=9.0 q=23.0 size=    1536KiB time=00:00:15.68 bitrate= 802.5kbits/s speed=0.359x    frame=  402 fps=9.1 q=23.0 size=    1536KiB time=00:00:16.00 bitrate= 786.5kbits/s speed=0.362x    frame=  410 fps=9.2 q=23.0 size=    1536KiB time=00:00:16.32 bitrate= 771.0kbits/s speed=0.365x    frame=  417 fps=9.2 q=23.0 size=    1536KiB time=00:00:16.60 bitrate= 758.0kbits/s speed=0.368x    frame=  425 fps=9.3 q=23.0 size=    1536KiB time=00:00:16.92 bitrate= 743.7kbits/s speed=0.37x    frame=  432 fps=9.4 q=23.0 size=    1536KiB time=00:00:17.20 bitrate= 731.6kbits/s speed=0.372x    frame=  440 fps=9.4 q=23.0 size=    1536KiB time=00:00:17.52 bitrate= 718.2kbits/s speed=0.375x    frame=  446 fps=9.5 q=23.0 size=    1536KiB time=00:00:17.76 bitrate= 708.5kbits/s speed=0.376x    frame=  454 fps=9.5 q=23.0 size=    1536KiB time=00:00:18.08 bitrate= 696.0kbits/s speed=0.379x    frame=  462 fps=9.6 q=23.0 size=    1536KiB time=00:00:18.40 bitrate= 683.9kbits/s speed=0.382x    frame=  470 fps=9.7 q=23.0 size=    1792KiB time=00:00:18.72 bitrate= 784.2kbits/s speed=0.385x    frame=  476 fps=9.7 q=23.0 size=    1792KiB time=00:00:18.96 bitrate= 774.3kbits/s speed=0.385x    frame=  482 fps=9.7 q=23.0 size=    1792KiB time=00:00:19.20 bitrate= 764.6kbits/s speed=0.386x    frame=  488 fps=9.7 q=23.0 size=    1792KiB time=00:00:19.44 bitrate= 755.2kbits/s speed=0.387x    frame=  494 fps=9.7 q=23.0 size=    1792KiB time=00:00:19.68 bitrate= 746.0kbits/s speed=0.388x    frame=  500 fps=9.8 q=23.0 size=    1792KiB time=00:00:19.92 bitrate= 737.0kbits/s speed=0.389x    frame=  502 fps=9.7 q=23.0 size=    2304KiB time=00:00:20.00 bitrate= 943.7kbits/s speed=0.387x    frame=  514 fps=9.8 q=23.0 size=    2304KiB time=00:00:20.48 bitrate= 921.6kbits/s speed=0.392x    frame=  522 fps=9.9 q=23.0 size=    2304KiB time=00:00:20.80 bitrate= 907.4kbits/s speed=0.395x    frame=  528 fps=9.9 q=23.0 size=    2304KiB time=00:00:21.04 bitrate= 897.1kbits/s speed=0.396x    frame=  536 fps= 10 q=23.0 size=    2304KiB time=00:00:21.36 bitrate= 883.6kbits/s speed=0.398x    frame=  544 fps= 10 q=23.0 size=    2304KiB time=00:00:21.68 bitrate= 870.6kbits/s speed= 0.4x    frame=  552 fps= 10 q=23.0 size=    2304KiB time=00:00:22.00 bitrate= 857.9kbits/s speed=0.402x    frame=  558 fps= 10 q=23.0 size=    2304KiB time=00:00:22.24 bitrate= 848.7kbits/s speed=0.403x    frame=  566 fps= 10 q=23.0 size=    2304KiB time=00:00:22.56 bitrate= 836.6kbits/s speed=0.405x    frame=  572 fps= 10 q=23.0 size=    2304KiB time=00:00:22.80 bitrate= 827.8kbits/s speed=0.406x    frame=  580 fps= 10 q=23.0 size=    2304KiB time=00:00:23.12 bitrate= 816.4kbits/s speed=0.408x    frame=  588 fps= 10 q=23.0 size=    2304KiB time=00:00:23.44 bitrate= 805.2kbits/s speed=0.41x    frame=  596 fps= 10 q=23.0 size=    2304KiB time=00:00:23.76 bitrate= 794.4kbits/s speed=0.412x    frame=  604 fps= 10 q=23.0 size=    2304KiB time=00:00:24.08 bitrate= 783.8kbits/s speed=0.414x    frame=  610 fps= 10 q=23.0 size=    2560KiB time=00:00:24.32 bitrate= 862.3kbits/s speed=0.414x    frame=  616 fps= 10 q=23.0 size=    2560KiB time=00:00:24.56 bitrate= 853.9kbits/s speed=0.415x    frame=  620 fps= 10 q=23.0 size=    2560KiB time=00:00:24.72 bitrate= 848.4kbits/s speed=0.414x    frame=  626 fps= 10 q=23.0 size=    2560KiB time=00:00:24.96 bitrate= 840.2kbits/s speed=0.414x    frame=  635 fps= 10 q=23.0 size=    2560KiB time=00:00:25.32 bitrate= 828.3kbits/s speed=0.417x    frame=  644 fps= 11 q=23.0 size=    2560KiB time=00:00:25.68 bitrate= 816.7kbits/s speed=0.419x    frame=  653 fps= 11 q=23.0 size=    2560KiB time=00:00:26.04 bitrate= 805.4kbits/s speed=0.422x    frame=  662 fps= 11 q=23.0 size=    2560KiB time=00:00:26.40 bitrate= 794.4kbits/s speed=0.424x    frame=  672 fps= 11 q=23.0 size=    2560KiB time=00:00:26.80 bitrate= 782.5kbits/s speed=0.427x    frame=  680 fps= 11 q=23.0 size=    2560KiB time=00:00:27.12 bitrate= 773.3kbits/s speed=0.429x    frame=  690 fps= 11 q=23.0 size=    2560KiB time=00:00:27.52 bitrate= 762.1kbits/s speed=0.432x    frame=  698 fps= 11 q=23.0 size=    2560KiB time=00:00:27.84 bitrate= 753.3kbits/s speed=0.433x    frame=  707 fps= 11 q=23.0 size=    2560KiB time=00:00:28.20 bitrate= 743.7kbits/s speed=0.435x    frame=  716 fps= 11 q=23.0 size=    2560KiB time=00:00:28.56 bitrate= 734.3kbits/s speed=0.438x    frame=  724 fps= 11 q=23.0 size=    2560KiB time=00:00:28.88 bitrate= 726.2kbits/s speed=0.439x    frame=  734 fps= 11 q=23.0 size=    2560KiB time=00:00:29.28 bitrate= 716.3kbits/s speed=0.442x    frame=  742 fps= 11 q=23.0 size=    2560KiB time=00:00:29.60 bitrate= 708.5kbits/s speed=0.443x    frame=  750 fps= 11 q=23.0 size=    2560KiB time=00:00:29.92 bitrate= 700.9kbits/s speed=0.445x    frame=  757 fps= 11 q=23.0 size=    3328KiB time=00:00:30.20 bitrate= 902.8kbits/s speed=0.446x    frame=  768 fps= 11 q=23.0 size=    3328KiB time=00:00:30.64 bitrate= 889.8kbits/s speed=0.449x    frame=  778 fps= 11 q=23.0 size=    3328KiB time=00:00:31.04 bitrate= 878.3kbits/s speed=0.451x    frame=  788 fps= 11 q=23.0 size=    3328KiB time=00:00:31.44 bitrate= 867.2kbits/s speed=0.454x    frame=  796 fps= 11 q=23.0 size=    3328KiB time=00:00:31.76 bitrate= 858.4kbits/s speed=0.455x    frame=  804 fps= 11 q=23.0 size=    3328KiB time=00:00:32.08 bitrate= 849.9kbits/s speed=0.457x    frame=  814 fps= 12 q=23.0 size=    3328KiB time=00:00:32.48 bitrate= 839.4kbits/s speed=0.459x    frame=  823 fps= 12 q=23.0 size=    3328KiB time=00:00:32.84 bitrate= 830.2kbits/s speed=0.461x    frame=  832 fps= 12 q=23.0 size=    3328KiB time=00:00:33.20 bitrate= 821.2kbits/s speed=0.463x    frame=  840 fps= 12 q=23.0 size=    3328KiB time=00:00:33.52 bitrate= 813.3kbits/s speed=0.464x    frame=  850 fps= 12 q=23.0 size=    3328KiB time=00:00:33.92 bitrate= 803.8kbits/s speed=0.466x    frame=  858 fps= 12 q=23.0 size=    3328KiB time=00:00:34.24 bitrate= 796.2kbits/s speed=0.467x    frame=  868 fps= 12 q=23.0 size=    3328KiB time=00:00:34.64 bitrate= 787.0kbits/s speed=0.47x    frame=  876 fps= 12 q=23.0 size=    3328KiB time=00:00:34.96 bitrate= 779.8kbits/s speed=0.471x    frame=  885 fps= 12 q=23.0 size=    3328KiB time=00:00:35.32 bitrate= 771.9kbits/s speed=0.472x    frame=  894 fps= 12 q=23.0 size=    3328KiB time=00:00:35.68 bitrate= 764.1kbits/s speed=0.474x    frame=  903 fps= 12 q=23.0 size=    3584KiB time=00:00:36.04 bitrate= 814.7kbits/s speed=0.476x    frame=  914 fps= 12 q=23.0 size=    3584KiB time=00:00:36.48 bitrate= 804.8kbits/s speed=0.478x    frame=  922 fps= 12 q=23.0 size=    3584KiB time=00:00:36.80 bitrate= 797.8kbits/s speed=0.479x    frame=  930 fps= 12 q=23.0 size=    3584KiB time=00:00:37.12 bitrate= 791.0kbits/s speed=0.48x    frame=  940 fps= 12 q=23.0 size=    3584KiB time=00:00:37.52 bitrate= 782.5kbits/s speed=0.482x    frame=  949 fps= 12 q=23.0 size=    3584KiB time=00:00:37.88 bitrate= 775.1kbits/s speed=0.484x    frame=  958 fps= 12 q=23.0 size=    3584KiB time=00:00:38.24 bitrate= 767.8kbits/s speed=0.485x    frame=  967 fps= 12 q=23.0 size=    3584KiB time=00:00:38.60 bitrate= 760.6kbits/s speed=0.487x    frame=  976 fps= 12 q=23.0 size=    3584KiB time=00:00:38.96 bitrate= 753.6kbits/s speed=0.488x    frame=  984 fps= 12 q=23.0 size=    3584KiB time=00:00:39.28 bitrate= 747.5kbits/s speed=0.489x    frame=  994 fps= 12 q=23.0 size=    3584KiB time=00:00:39.68 bitrate= 739.9kbits/s speed=0.491x    frame= 1000 fps= 12 q=23.0 size=    3584KiB time=00:00:39.92 bitrate= 735.5kbits/s speed=0.491x    frame= 1007 fps= 12 q=23.0 size=    4096KiB time=00:00:40.20 bitrate= 834.7kbits/s speed=0.491x    frame= 1018 fps= 12 q=23.0 size=    4096KiB time=00:00:40.64 bitrate= 825.7kbits/s speed=0.494x    frame= 1028 fps= 12 q=23.0 size=    4096KiB time=00:00:41.04 bitrate= 817.6kbits/s speed=0.495x    frame= 1036 fps= 12 q=23.0 size=    4096KiB time=00:00:41.36 bitrate= 811.3kbits/s speed=0.496x    frame= 1045 fps= 12 q=23.0 size=    4352KiB time=00:00:41.72 bitrate= 854.6kbits/s speed=0.498x    frame= 1054 fps= 12 q=23.0 size=    4352KiB time=00:00:42.08 bitrate= 847.2kbits/s speed=0.499x    frame= 1062 fps= 13 q=23.0 size=    4352KiB time=00:00:42.40 bitrate= 840.8kbits/s speed= 0.5x    frame= 1070 fps= 13 q=23.0 size=    4352KiB time=00:00:42.72 bitrate= 834.5kbits/s speed=0.501x    frame= 1078 fps= 13 q=23.0 size=    4352KiB time=00:00:43.04 bitrate= 828.3kbits/s speed=0.501x    frame= 1086 fps= 13 q=23.0 size=    4352KiB time=00:00:43.36 bitrate= 822.2kbits/s speed=0.502x    frame= 1094 fps= 13 q=23.0 size=    4352KiB time=00:00:43.68 bitrate= 816.2kbits/s speed=0.503x    frame= 1102 fps= 13 q=23.0 size=    4352KiB time=00:00:44.00 bitrate= 810.3kbits/s speed=0.504x    frame= 1110 fps= 13 q=23.0 size=    4352KiB time=00:00:44.32 bitrate= 804.4kbits/s speed=0.505x    frame= 1120 fps= 13 q=23.0 size=    4352KiB time=00:00:44.72 bitrate= 797.2kbits/s speed=0.506x    frame= 1128 fps= 13 q=23.0 size=    4352KiB time=00:00:45.04 bitrate= 791.6kbits/s speed=0.507x    frame= 1138 fps= 13 q=23.0 size=    4352KiB time=00:00:45.44 bitrate= 784.6kbits/s speed=0.509x    frame= 1146 fps= 13 q=23.0 size=    4352KiB time=00:00:45.76 bitrate= 779.1kbits/s speed=0.509x    frame= 1155 fps= 13 q=23.0 size=    4352KiB time=00:00:46.12 bitrate= 773.0kbits/s speed=0.51x    frame= 1164 fps= 13 q=23.0 size=    4352KiB time=00:00:46.48 bitrate= 767.0kbits/s speed=0.512x    frame= 1172 fps= 13 q=23.0 size=    4352KiB time=00:00:46.80 bitrate= 761.8kbits/s speed=0.512x    frame= 1180 fps= 13 q=23.0 size=    4352KiB time=00:00:47.12 bitrate= 756.6kbits/s speed=0.513x    frame= 1188 fps= 13 q=23.0 size=    4352KiB time=00:00:47.44 bitrate= 751.5kbits/s speed=0.514x    frame= 1197 fps= 13 q=23.0 size=    4608KiB time=00:00:47.80 bitrate= 789.7kbits/s speed=0.515x    frame= 1206 fps= 13 q=23.0 size=    4608KiB time=00:00:48.16 bitrate= 783.8kbits/s speed=0.516x    frame= 1213 fps= 13 q=23.0 size=    4608KiB time=00:00:48.44 bitrate= 779.3kbits/s speed=0.516x    frame= 1221 fps= 13 q=23.0 size=    4608KiB time=00:00:48.72 bitrate= 774.8kbits/s speed=0.516x    frame= 1228 fps= 13 q=23.0 size=    4608KiB time=00:00:49.04 bitrate= 769.8kbits/s speed=0.517x    frame= 1237 fps= 13 q=23.0 size=    4608KiB time=00:00:49.40 bitrate= 764.2kbits/s speed=0.518x    frame= 1244 fps= 13 q=23.0 size=    4608KiB time=00:00:49.68 bitrate= 759.8kbits/s speed=0.518x    frame= 1250 fps= 13 q=23.0 size=    4608KiB time=00:00:49.92 bitrate= 756.2kbits/s speed=0.518x    frame= 1259 fps= 13 q=23.0 size=    5120KiB time=00:00:50.28 bitrate= 834.2kbits/s speed=0.519x    frame= 1270 fps= 13 q=23.0 size=    5120KiB time=00:00:50.72 bitrate= 827.0kbits/s speed=0.521x    frame= 1278 fps= 13 q=23.0 size=    5120KiB time=00:00:51.04 bitrate= 821.8kbits/s speed=0.522x    frame= 1286 fps= 13 q=23.0 size=    5120KiB time=00:00:51.36 bitrate= 816.7kbits/s speed=0.522x    frame= 1294 fps= 13 q=23.0 size=    5120KiB time=00:00:51.68 bitrate= 811.6kbits/s speed=0.523x    frame= 1302 fps= 13 q=23.0 size=    5120KiB time=00:00:52.00 bitrate= 806.6kbits/s speed=0.523x    frame= 1312 fps= 13 q=23.0 size=    5120KiB time=00:00:52.40 bitrate= 800.4kbits/s speed=0.525x    frame= 1320 fps= 13 q=23.0 size=    5120KiB time=00:00:52.72 bitrate= 795.6kbits/s speed=0.525x    frame= 1328 fps= 13 q=23.0 size=    5120KiB time=00:00:53.04 bitrate= 790.8kbits/s speed=0.526x    frame= 1336 fps= 13 q=23.0 size=    5376KiB time=00:00:53.36 bitrate= 825.3kbits/s speed=0.526x    frame= 1346 fps= 13 q=23.0 size=    5376KiB time=00:00:53.76 bitrate= 819.2kbits/s speed=0.528x    frame= 1355 fps= 13 q=23.0 size=    5376KiB time=00:00:54.12 bitrate= 813.8kbits/s speed=0.529x    frame= 1364 fps= 13 q=23.0 size=    5376KiB time=00:00:54.48 bitrate= 808.4kbits/s speed=0.53x    frame= 1372 fps= 13 q=23.0 size=    5376KiB time=00:00:54.80 bitrate= 803.7kbits/s speed=0.53x    frame= 1378 fps= 13 q=23.0 size=    5376KiB time=00:00:55.04 bitrate= 800.2kbits/s speed=0.53x    frame= 1388 fps= 13 q=23.0 size=    5376KiB time=00:00:55.44 bitrate= 794.4kbits/s speed=0.531x    frame= 1396 fps= 13 q=23.0 size=    5376KiB time=00:00:55.76 bitrate= 789.8kbits/s speed=0.532x    frame= 1404 fps= 13 q=23.0 size=    5376KiB time=00:00:56.08 bitrate= 785.3kbits/s speed=0.532x    frame= 1411 fps= 13 q=23.0 size=    5376KiB time=00:00:56.36 bitrate= 781.4kbits/s speed=0.532x    frame= 1418 fps= 13 q=23.0 size=    5376KiB time=00:00:56.64 bitrate= 777.6kbits/s speed=0.532x    frame= 1426 fps= 13 q=23.0 size=    5376KiB time=00:00:56.96 bitrate= 773.2kbits/s speed=0.533x    frame= 1434 fps= 13 q=23.0 size=    5376KiB time=00:00:57.28 bitrate= 768.9kbits/s speed=0.533x    frame= 1442 fps= 13 q=23.0 size=    5376KiB time=00:00:57.60 bitrate= 764.6kbits/s speed=0.534x    frame= 1450 fps= 13 q=23.0 size=    5376KiB time=00:00:57.92 bitrate= 760.4kbits/s speed=0.534x    frame= 1460 fps= 13 q=23.0 size=    5376KiB time=00:00:58.32 bitrate= 755.2kbits/s speed=0.536x    frame= 1466 fps= 13 q=23.0 size=    5376KiB time=00:00:58.56 bitrate= 752.1kbits/s speed=0.535x    frame= 1475 fps= 13 q=23.0 size=    5376KiB time=00:00:58.92 bitrate= 747.5kbits/s speed=0.536x    frame= 1482 fps= 13 q=23.0 size=    5376KiB time=00:00:59.20 bitrate= 743.9kbits/s speed=0.536x    frame= 1491 fps= 13 q=23.0 size=    5632KiB time=00:00:59.56 bitrate= 774.6kbits/s speed=0.537x    frame= 1499 fps= 13 q=23.0 size=    5632KiB time=00:00:59.88 bitrate= 770.5kbits/s speed=0.538x    frame= 1506 fps= 13 q=23.0 size=    6144KiB time=00:01:00.16 bitrate= 836.6kbits/s speed=0.538x    frame= 1516 fps= 13 q=23.0 size=    6144KiB time=00:01:00.56 bitrate= 831.1kbits/s speed=0.539x    frame= 1524 fps= 13 q=23.0 size=    6144KiB time=00:01:00.88 bitrate= 826.7kbits/s speed=0.539x    frame= 1534 fps= 14 q=23.0 size=    6144KiB time=00:01:01.28 bitrate= 821.3kbits/s speed=0.54x    frame= 1540 fps= 14 q=23.0 size=    6144KiB time=00:01:01.52 bitrate= 818.1kbits/s speed=0.54x    frame= 1545 fps= 14 q=23.0 size=    6144KiB time=00:01:01.72 bitrate= 815.5kbits/s speed=0.54x    frame= 1552 fps= 14 q=23.0 size=    6144KiB time=00:01:02.00 bitrate= 811.8kbits/s speed=0.54x    frame= 1561 fps= 14 q=23.0 size=    6144KiB time=00:01:02.36 bitrate= 807.1kbits/s speed=0.54x    frame= 1570 fps= 14 q=23.0 size=    6144KiB time=00:01:02.72 bitrate= 802.5kbits/s speed=0.541x    frame= 1579 fps= 14 q=23.0 size=    6144KiB time=00:01:03.08 bitrate= 797.9kbits/s speed=0.542x    frame= 1587 fps= 14 q=23.0 size=    6144KiB time=00:01:03.40 bitrate= 793.9kbits/s speed=0.542x    frame= 1595 fps= 14 q=23.0 size=    6144KiB time=00:01:03.72 bitrate= 789.9kbits/s speed=0.543x    frame= 1602 fps= 14 q=23.0 size=    6144KiB time=00:01:04.04 bitrate= 785.9kbits/s speed=0.543x    frame= 1612 fps= 14 q=23.0 size=    6144KiB time=00:01:04.40 bitrate= 781.6kbits/s speed=0.544x    frame= 1620 fps= 14 q=23.0 size=    6144KiB time=00:01:04.72 bitrate= 777.7kbits/s speed=0.544x    frame= 1630 fps= 14 q=23.0 size=    6400KiB time=00:01:05.12 bitrate= 805.1kbits/s speed=0.545x    frame= 1636 fps= 14 q=23.0 size=    6400KiB time=00:01:05.36 bitrate= 802.2kbits/s speed=0.545x    frame= 1644 fps= 14 q=23.0 size=    6400KiB time=00:01:05.68 bitrate= 798.3kbits/s speed=0.546x    frame= 1651 fps= 14 q=23.0 size=    6400KiB time=00:01:05.96 bitrate= 794.9kbits/s speed=0.545x    frame= 1660 fps= 14 q=23.0 size=    6400KiB time=00:01:06.32 bitrate= 790.5kbits/s speed=0.546x    frame= 1668 fps= 14 q=23.0 size=    6400KiB time=00:01:06.64 bitrate= 786.8kbits/s speed=0.547x    frame= 1678 fps= 14 q=23.0 size=    6400KiB time=00:01:07.04 bitrate= 782.1kbits/s speed=0.548x    frame= 1684 fps= 14 q=23.0 size=    6400KiB time=00:01:07.28 bitrate= 779.3kbits/s speed=0.547x    frame= 1693 fps= 14 q=23.0 size=    6400KiB time=00:01:07.64 bitrate= 775.1kbits/s speed=0.548x    frame= 1701 fps= 14 q=23.0 size=    6400KiB time=00:01:07.96 bitrate= 771.5kbits/s speed=0.548x    frame= 1710 fps= 14 q=23.0 size=    6400KiB time=00:01:08.32 bitrate= 767.4kbits/s speed=0.549x    frame= 1716 fps= 14 q=23.0 size=    6400KiB time=00:01:08.56 bitrate= 764.7kbits/s speed=0.549x    frame= 1724 fps= 14 q=23.0 size=    6400KiB time=00:01:08.88 bitrate= 761.2kbits/s speed=0.549x    frame= 1732 fps= 14 q=23.0 size=    6400KiB time=00:01:09.20 bitrate= 757.6kbits/s speed=0.549x    frame= 1742 fps= 14 q=23.0 size=    6400KiB time=00:01:09.60 bitrate= 753.3kbits/s speed=0.55x    frame= 1746 fps= 14 q=20.0 size=    6400KiB time=00:01:09.76 bitrate= 751.6kbits/s speed=0.549x    frame= 1750 fps= 14 q=23.0 size=    6400KiB time=00:01:09.92 bitrate= 749.8kbits/s speed=0.549x    frame= 1756 fps= 14 q=23.0 size=    6912KiB time=00:01:10.16 bitrate= 807.1kbits/s speed=0.548x    frame= 1764 fps= 14 q=23.0 size=    6912KiB time=00:01:10.48 bitrate= 803.4kbits/s speed=0.549x    frame= 1773 fps= 14 q=23.0 size=    7168KiB time=00:01:10.84 bitrate= 828.9kbits/s speed=0.549x    frame= 1782 fps= 14 q=23.0 size=    7168KiB time=00:01:11.20 bitrate= 824.7kbits/s speed=0.55x    frame= 1788 fps= 14 q=23.0 size=    7168KiB time=00:01:11.44 bitrate= 822.0kbits/s speed=0.55x    frame= 1796 fps= 14 q=23.0 size=    7168KiB time=00:01:11.76 bitrate= 818.3kbits/s speed=0.55x    frame= 1804 fps= 14 q=23.0 size=    7168KiB time=00:01:12.08 bitrate= 814.7kbits/s speed=0.55x    frame= 1812 fps= 14 q=23.0 size=    7168KiB time=00:01:12.40 bitrate= 811.1kbits/s speed=0.551x    frame= 1820 fps= 14 q=23.0 size=    7168KiB time=00:01:12.72 bitrate= 807.5kbits/s speed=0.551x    frame= 1828 fps= 14 q=23.0 size=    7168KiB time=00:01:13.04 bitrate= 804.0kbits/s speed=0.551x    frame= 1834 fps= 14 q=23.0 size=    7168KiB time=00:01:13.28 bitrate= 801.3kbits/s speed=0.551x    frame= 1842 fps= 14 q=23.0 size=    7168KiB time=00:01:13.60 bitrate= 797.8kbits/s speed=0.551x    frame= 1850 fps= 14 q=23.0 size=    7168KiB time=00:01:13.92 bitrate= 794.4kbits/s speed=0.552x    frame= 1858 fps= 14 q=23.0 size=    7168KiB time=00:01:14.24 bitrate= 791.0kbits/s speed=0.552x    frame= 1866 fps= 14 q=23.0 size=    7168KiB time=00:01:14.56 bitrate= 787.6kbits/s speed=0.552x    frame= 1872 fps= 14 q=23.0 size=    7168KiB time=00:01:14.80 bitrate= 785.0kbits/s speed=0.552x    frame= 1880 fps= 14 q=23.0 size=    7168KiB time=00:01:15.12 bitrate= 781.7kbits/s speed=0.552x    frame= 1888 fps= 14 q=23.0 size=    7168KiB time=00:01:15.44 bitrate= 778.4kbits/s speed=0.552x    frame= 1896 fps= 14 q=23.0 size=    7168KiB time=00:01:15.76 bitrate= 775.1kbits/s speed=0.553x    frame= 1902 fps= 14 q=23.0 size=    7168KiB time=00:01:16.00 bitrate= 772.6kbits/s speed=0.553x    frame= 1910 fps= 14 q=23.0 size=    7168KiB time=00:01:16.32 bitrate= 769.4kbits/s speed=0.553x    frame= 1918 fps= 14 q=23.0 size=    7168KiB time=00:01:16.64 bitrate= 766.2kbits/s speed=0.553x    frame= 1924 fps= 14 q=23.0 size=    7168KiB time=00:01:16.88 bitrate= 763.8kbits/s speed=0.553x    frame= 1932 fps= 14 q=23.0 size=    7424KiB time=00:01:17.20 bitrate= 787.8kbits/s speed=0.553x    frame= 1940 fps= 14 q=23.0 size=    7424KiB time=00:01:17.52 bitrate= 784.5kbits/s speed=0.553x    frame= 1948 fps= 14 q=23.0 size=    7424KiB time=00:01:17.84 bitrate= 781.3kbits/s speed=0.554x    frame= 1955 fps= 14 q=23.0 size=    7424KiB time=00:01:18.12 bitrate= 778.5kbits/s speed=0.554x    frame= 1963 fps= 14 q=23.0 size=    7424KiB time=00:01:18.44 bitrate= 775.3kbits/s speed=0.554x    frame= 1970 fps= 14 q=23.0 size=    7424KiB time=00:01:18.72 bitrate= 772.6kbits/s speed=0.554x    frame= 1978 fps= 14 q=23.0 size=    7424KiB time=00:01:19.04 bitrate= 769.5kbits/s speed=0.554x    frame= 1986 fps= 14 q=23.0 size=    7424KiB time=00:01:19.36 bitrate= 766.4kbits/s speed=0.555x    frame= 1993 fps= 14 q=23.0 size=    7424KiB time=00:01:19.64 bitrate= 763.7kbits/s speed=0.555x    frame= 2000 fps= 14 q=23.0 size=    7424KiB time=00:01:19.92 bitrate= 761.0kbits/s speed=0.555x    frame= 2008 fps= 14 q=23.0 size=    7936KiB time=00:01:20.24 bitrate= 810.2kbits/s speed=0.555x    frame= 2014 fps= 14 q=23.0 size=    7936KiB time=00:01:20.48 bitrate= 807.8kbits/s speed=0.555x    frame= 2022 fps= 14 q=23.0 size=    7936KiB time=00:01:20.80 bitrate= 804.6kbits/s speed=0.555x    frame= 2029 fps= 14 q=23.0 size=    7936KiB time=00:01:21.12 bitrate= 801.4kbits/s speed=0.555x    frame= 2036 fps= 14 q=23.0 size=    7936KiB time=00:01:21.36 bitrate= 799.1kbits/s speed=0.555x    frame= 2044 fps= 14 q=23.0 size=    7936KiB time=00:01:21.68 bitrate= 795.9kbits/s speed=0.555x    frame= 2052 fps= 14 q=23.0 size=    7936KiB time=00:01:22.00 bitrate= 792.8kbits/s speed=0.555x    frame= 2060 fps= 14 q=23.0 size=    7936KiB time=00:01:22.32 bitrate= 789.7kbits/s speed=0.556x    frame= 2068 fps= 14 q=23.0 size=    7936KiB time=00:01:22.64 bitrate= 786.7kbits/s speed=0.556x    frame= 2074 fps= 14 q=23.0 size=    8192KiB time=00:01:22.88 bitrate= 809.7kbits/s speed=0.556x    frame= 2080 fps= 14 q=23.0 size=    8192KiB time=00:01:23.12 bitrate= 807.4kbits/s speed=0.555x    frame= 2088 fps= 14 q=23.0 size=    8192KiB time=00:01:23.44 bitrate= 804.3kbits/s speed=0.556x    frame= 2096 fps= 14 q=23.0 size=    8192KiB time=00:01:23.76 bitrate= 801.2kbits/s speed=0.556x    frame= 2102 fps= 14 q=23.0 size=    8192KiB time=00:01:24.00 bitrate= 798.9kbits/s speed=0.556x    frame= 2110 fps= 14 q=23.0 size=    8192KiB time=00:01:24.32 bitrate= 795.9kbits/s speed=0.556x    frame= 2118 fps= 14 q=23.0 size=    8192KiB time=00:01:24.64 bitrate= 792.9kbits/s speed=0.556x    frame= 2125 fps= 14 q=23.0 size=    8192KiB time=00:01:24.96 bitrate= 789.9kbits/s speed=0.557x    frame= 2132 fps= 14 q=23.0 size=    8192KiB time=00:01:25.20 bitrate= 787.7kbits/s speed=0.556x    frame= 2140 fps= 14 q=23.0 size=    8192KiB time=00:01:25.52 bitrate= 784.7kbits/s speed=0.557x    frame= 2147 fps= 14 q=23.0 size=    8192KiB time=00:01:25.80 bitrate= 782.2kbits/s speed=0.557x    frame= 2155 fps= 14 q=23.0 size=    8192KiB time=00:01:26.12 bitrate= 779.3kbits/s speed=0.557x    frame= 2162 fps= 14 q=23.0 size=    8192KiB time=00:01:26.40 bitrate= 776.7kbits/s speed=0.557x    frame= 2168 fps= 14 q=23.0 size=    8192KiB time=00:01:26.64 bitrate= 774.6kbits/s speed=0.557x    frame= 2177 fps= 14 q=23.0 size=    8192KiB time=00:01:27.00 bitrate= 771.4kbits/s speed=0.557x    frame= 2186 fps= 14 q=23.0 size=    8192KiB time=00:01:27.36 bitrate= 768.2kbits/s speed=0.558x    frame= 2194 fps= 14 q=23.0 size=    8192KiB time=00:01:27.68 bitrate= 765.4kbits/s speed=0.558x    frame= 2203 fps= 14 q=23.0 size=    8192KiB time=00:01:28.04 bitrate= 762.3kbits/s speed=0.558x    frame= 2212 fps= 14 q=23.0 size=    8192KiB time=00:01:28.40 bitrate= 759.2kbits/s speed=0.559x    frame= 2220 fps= 14 q=23.0 size=    8448KiB time=00:01:28.72 bitrate= 780.1kbits/s speed=0.559x    frame= 2230 fps= 14 q=23.0 size=    8448KiB time=00:01:29.12 bitrate= 776.6kbits/s speed=0.56x    frame= 2238 fps= 14 q=23.0 size=    8448KiB time=00:01:29.44 bitrate= 773.8kbits/s speed=0.56x    frame= 2248 fps= 14 q=23.0 size=    8448KiB time=00:01:29.84 bitrate= 770.3kbits/s speed=0.561x    frame= 2253 fps= 14 q=23.0 size=    8960KiB time=00:01:30.04 bitrate= 815.2kbits/s speed=0.56x    frame= 2262 fps= 14 q=23.0 size=    8960KiB time=00:01:30.40 bitrate= 812.0kbits/s speed=0.561x    frame= 2273 fps= 14 q=23.0 size=    8960KiB time=00:01:30.84 bitrate= 808.0kbits/s speed=0.562x    frame= 2280 fps= 14 q=23.0 size=    8960KiB time=00:01:31.12 bitrate= 805.5kbits/s speed=0.562x    frame= 2290 fps= 14 q=23.0 size=    8960KiB time=00:01:31.52 bitrate= 802.0kbits/s speed=0.563x    frame= 2299 fps= 14 q=23.0 size=    8960KiB time=00:01:31.88 bitrate= 798.9kbits/s speed=0.563x    frame= 2308 fps= 14 q=23.0 size=    8960KiB time=00:01:32.24 bitrate= 795.8kbits/s speed=0.564x    frame= 2316 fps= 14 q=23.0 size=    8960KiB time=00:01:32.56 bitrate= 793.0kbits/s speed=0.564x    frame= 2324 fps= 14 q=23.0 size=    8960KiB time=00:01:32.88 bitrate= 790.3kbits/s speed=0.564x    frame= 2334 fps= 14 q=23.0 size=    8960KiB time=00:01:33.28 bitrate= 786.9kbits/s speed=0.565x    frame= 2342 fps= 14 q=23.0 size=    8960KiB time=00:01:33.60 bitrate= 784.2kbits/s speed=0.565x    frame= 2351 fps= 14 q=23.0 size=    8960KiB time=00:01:33.96 bitrate= 781.2kbits/s speed=0.565x    frame= 2360 fps= 14 q=23.0 size=    8960KiB time=00:01:34.32 bitrate= 778.2kbits/s speed=0.566x    frame= 2369 fps= 14 q=23.0 size=    9216KiB time=00:01:34.68 bitrate= 797.4kbits/s speed=0.566x    frame= 2378 fps= 14 q=23.0 size=    9216KiB time=00:01:35.04 bitrate= 794.4kbits/s speed=0.567x    frame= 2386 fps= 14 q=23.0 size=    9216KiB time=00:01:35.36 bitrate= 791.7kbits/s speed=0.567x    frame= 2396 fps= 14 q=23.0 size=    9216KiB time=00:01:35.76 bitrate= 788.4kbits/s speed=0.568x    frame= 2404 fps= 14 q=23.0 size=    9216KiB time=00:01:36.08 bitrate= 785.8kbits/s speed=0.568x    frame= 2412 fps= 14 q=23.0 size=    9216KiB time=00:01:36.40 bitrate= 783.2kbits/s speed=0.568x    frame= 2418 fps= 14 q=23.0 size=    9216KiB time=00:01:36.64 bitrate= 781.2kbits/s speed=0.568x    frame= 2426 fps= 14 q=23.0 size=    9216KiB time=00:01:36.96 bitrate= 778.6kbits/s speed=0.568x    frame= 2435 fps= 14 q=23.0 size=    9216KiB time=00:01:37.32 bitrate= 775.8kbits/s speed=0.568x    frame= 2444 fps= 14 q=23.0 size=    9216KiB time=00:01:37.68 bitrate= 772.9kbits/s speed=0.569x    frame= 2452 fps= 14 q=23.0 size=    9216KiB time=00:01:38.00 bitrate= 770.4kbits/s speed=0.569x    frame= 2462 fps= 14 q=23.0 size=    9216KiB time=00:01:38.40 bitrate= 767.3kbits/s speed=0.57x    frame= 2471 fps= 14 q=23.0 size=    9216KiB time=00:01:38.76 bitrate= 764.5kbits/s speed=0.57x    frame= 2480 fps= 14 q=23.0 size=    9216KiB time=00:01:39.12 bitrate= 761.7kbits/s speed=0.571x    frame= 2488 fps= 14 q=23.0 size=    9216KiB time=00:01:39.44 bitrate= 759.2kbits/s speed=0.571x    frame= 2498 fps= 14 q=23.0 size=    9216KiB time=00:01:39.84 bitrate= 756.2kbits/s speed=0.571x    frame= 2502 fps= 14 q=23.0 size=    9728KiB time=00:01:40.00 bitrate= 796.9kbits/s speed=0.571x    frame= 2514 fps= 14 q=23.0 size=    9984KiB time=00:01:40.48 bitrate= 814.0kbits/s speed=0.572x    frame= 2524 fps= 14 q=23.0 size=    9984KiB time=00:01:40.88 bitrate= 810.8kbits/s speed=0.572x    frame= 2533 fps= 14 q=23.0 size=    9984KiB time=00:01:41.24 bitrate= 807.9kbits/s speed=0.573x    frame= 2542 fps= 14 q=23.0 size=    9984KiB time=00:01:41.60 bitrate= 805.0kbits/s speed=0.573x    frame= 2552 fps= 14 q=23.0 size=    9984KiB time=00:01:42.00 bitrate= 801.9kbits/s speed=0.574x    frame= 2560 fps= 14 q=23.0 size=    9984KiB time=00:01:42.32 bitrate= 799.3kbits/s speed=0.574x    frame= 2570 fps= 14 q=23.0 size=    9984KiB time=00:01:42.72 bitrate= 796.2kbits/s speed=0.575x    frame= 2578 fps= 14 q=23.0 size=    9984KiB time=00:01:43.04 bitrate= 793.8kbits/s speed=0.575x    frame= 2588 fps= 14 q=23.0 size=    9984KiB time=00:01:43.44 bitrate= 790.7kbits/s speed=0.575x    frame= 2596 fps= 14 q=23.0 size=    9984KiB time=00:01:43.76 bitrate= 788.3kbits/s speed=0.576x    frame= 2604 fps= 14 q=23.0 size=    9984KiB time=00:01:44.08 bitrate= 785.8kbits/s speed=0.576x    frame= 2614 fps= 14 q=23.0 size=    9984KiB time=00:01:44.48 bitrate= 782.8kbits/s speed=0.576x    frame= 2622 fps= 14 q=23.0 size=    9984KiB time=00:01:44.80 bitrate= 780.4kbits/s speed=0.577x    frame= 2632 fps= 14 q=23.0 size=    9984KiB time=00:01:45.20 bitrate= 777.5kbits/s speed=0.577x    frame= 2638 fps= 14 q=23.0 size=    9984KiB time=00:01:45.44 bitrate= 775.7kbits/s speed=0.577x    frame= 2646 fps= 14 q=23.0 size=    9984KiB time=00:01:45.76 bitrate= 773.3kbits/s speed=0.577x    frame= 2654 fps= 14 q=23.0 size=    9984KiB time=00:01:46.08 bitrate= 771.0kbits/s speed=0.577x    frame= 2663 fps= 14 q=23.0 size=   10240KiB time=00:01:46.44 bitrate= 788.1kbits/s speed=0.578x    frame= 2672 fps= 14 q=23.0 size=   10240KiB time=00:01:46.80 bitrate= 785.5kbits/s speed=0.578x    frame= 2680 fps= 14 q=23.0 size=   10240KiB time=00:01:47.12 bitrate= 783.1kbits/s speed=0.578x    frame= 2689 fps= 14 q=23.0 size=   10240KiB time=00:01:47.48 bitrate= 780.5kbits/s speed=0.578x    frame= 2698 fps= 14 q=23.0 size=   10240KiB time=00:01:47.84 bitrate= 777.9kbits/s speed=0.579x    frame= 2708 fps= 14 q=23.0 size=   10240KiB time=00:01:48.24 bitrate= 775.0kbits/s speed=0.579x    frame= 2716 fps= 15 q=23.0 size=   10240KiB time=00:01:48.56 bitrate= 772.7kbits/s speed=0.58x    frame= 2726 fps= 15 q=23.0 size=   10240KiB time=00:01:48.96 bitrate= 769.9kbits/s speed=0.58x    frame= 2732 fps= 15 q=23.0 size=   10240KiB time=00:01:49.20 bitrate= 768.2kbits/s speed=0.58x    frame= 2742 fps= 15 q=23.0 size=   10240KiB time=00:01:49.60 bitrate= 765.4kbits/s speed=0.581x    frame= 2750 fps= 15 q=23.0 size=   10240KiB time=00:01:49.92 bitrate= 763.2kbits/s speed=0.581x    frame= 2754 fps= 15 q=23.0 size=   10752KiB time=00:01:50.08 bitrate= 800.2kbits/s speed=0.58x    frame= 2766 fps= 15 q=23.0 size=   10752KiB time=00:01:50.56 bitrate= 796.7kbits/s speed=0.581x    frame= 2774 fps= 15 q=23.0 size=   10752KiB time=00:01:50.88 bitrate= 794.4kbits/s speed=0.581x    frame= 2784 fps= 15 q=23.0 size=   10752KiB time=00:01:51.28 bitrate= 791.5kbits/s speed=0.582x    frame= 2794 fps= 15 q=23.0 size=   10752KiB time=00:01:51.68 bitrate= 788.7kbits/s speed=0.582x    frame= 2802 fps= 15 q=23.0 size=   11008KiB time=00:01:52.00 bitrate= 805.2kbits/s speed=0.582x    frame= 2810 fps= 15 q=23.0 size=   11008KiB time=00:01:52.32 bitrate= 802.9kbits/s speed=0.583x    frame= 2820 fps= 15 q=23.0 size=   11008KiB time=00:01:52.72 bitrate= 800.0kbits/s speed=0.583x    frame= 2828 fps= 15 q=23.0 size=   11008KiB time=00:01:53.04 bitrate= 797.8kbits/s speed=0.583x    frame= 2837 fps= 15 q=23.0 size=   11008KiB time=00:01:53.44 bitrate= 794.9kbits/s speed=0.584x    frame= 2846 fps= 15 q=23.0 size=   11008KiB time=00:01:53.76 bitrate= 792.7kbits/s speed=0.584x    frame= 2855 fps= 15 q=23.0 size=   11008KiB time=00:01:54.12 bitrate= 790.2kbits/s speed=0.584x    frame= 2864 fps= 15 q=23.0 size=   11008KiB time=00:01:54.48 bitrate= 787.7kbits/s speed=0.585x    frame= 2873 fps= 15 q=23.0 size=   11008KiB time=00:01:54.84 bitrate= 785.2kbits/s speed=0.585x    frame= 2882 fps= 15 q=23.0 size=   11008KiB time=00:01:55.20 bitrate= 782.8kbits/s speed=0.585x    frame= 2891 fps= 15 q=23.0 size=   11008KiB time=00:01:55.56 bitrate= 780.4kbits/s speed=0.586x    frame= 2900 fps= 15 q=23.0 size=   11008KiB time=00:01:55.92 bitrate= 777.9kbits/s speed=0.586x    frame= 2910 fps= 15 q=23.0 size=   11008KiB time=00:01:56.32 bitrate= 775.3kbits/s speed=0.586x    frame= 2918 fps= 15 q=23.0 size=   11008KiB time=00:01:56.64 bitrate= 773.1kbits/s speed=0.587x    frame= 2928 fps= 15 q=23.0 size=   11008KiB time=00:01:57.04 bitrate= 770.5kbits/s speed=0.587x    frame= 2936 fps= 15 q=23.0 size=   11008KiB time=00:01:57.36 bitrate= 768.4kbits/s speed=0.587x    frame= 2944 fps= 15 q=23.0 size=   11008KiB time=00:01:57.68 bitrate= 766.3kbits/s speed=0.587x    frame= 2952 fps= 15 q=23.0 size=   11008KiB time=00:01:58.00 bitrate= 764.2kbits/s speed=0.588x    frame= 2962 fps= 15 q=23.0 size=   11264KiB time=00:01:58.40 bitrate= 779.4kbits/s speed=0.588x    frame= 2971 fps= 15 q=23.0 size=   11264KiB time=00:01:58.76 bitrate= 777.0kbits/s speed=0.588x    frame= 2980 fps= 15 q=23.0 size=   11264KiB time=00:01:59.12 bitrate= 774.6kbits/s speed=0.589x    frame= 2988 fps= 15 q=23.0 size=   11264KiB time=00:01:59.44 bitrate= 772.6kbits/s speed=0.589x    frame= 2998 fps= 15 q=23.0 size=   11264KiB time=00:01:59.84 bitrate= 770.0kbits/s speed=0.589x    frame= 3001 fps= 15 q=23.0 size=   11264KiB time=00:01:59.96 bitrate= 769.2kbits/s speed=0.588x    frame= 3013 fps= 15 q=23.0 size=   11776KiB time=00:02:00.44 bitrate= 801.0kbits/s speed=0.589x    frame= 3024 fps= 15 q=23.0 size=   11776KiB time=00:02:00.88 bitrate= 798.1kbits/s speed=0.59x    frame= 3030 fps= 15 q=23.0 size=   11776KiB time=00:02:01.12 bitrate= 796.5kbits/s speed=0.59x    frame= 3036 fps= 15 q=23.0 size=   11776KiB time=00:02:01.36 bitrate= 794.9kbits/s speed=0.589x    frame= 3042 fps= 15 q=23.0 size=   11776KiB time=00:02:01.60 bitrate= 793.3kbits/s speed=0.589x    frame= 3050 fps= 15 q=23.0 size=   11776KiB time=00:02:01.92 bitrate= 791.3kbits/s speed=0.589x    frame= 3056 fps= 15 q=23.0 size=   11776KiB time=00:02:02.16 bitrate= 789.7kbits/s speed=0.589x    frame= 3062 fps= 15 q=23.0 size=   11776KiB time=00:02:02.40 bitrate= 788.1kbits/s speed=0.589x    frame= 3066 fps= 15 q=23.0 size=   11776KiB time=00:02:02.56 bitrate= 787.1kbits/s speed=0.588x    frame= 3072 fps= 15 q=23.0 size=   11776KiB time=00:02:02.80 bitrate= 785.6kbits/s speed=0.588x    frame= 3078 fps= 15 q=23.0 size=   11776KiB time=00:02:03.04 bitrate= 784.0kbits/s speed=0.588x    frame= 3084 fps= 15 q=23.0 size=   11776KiB time=00:02:03.28 bitrate= 782.5kbits/s speed=0.587x    frame= 3090 fps= 15 q=23.0 size=   11776KiB time=00:02:03.52 bitrate= 781.0kbits/s speed=0.587x    frame= 3094 fps= 15 q=23.0 size=   11776KiB time=00:02:03.68 bitrate= 780.0kbits/s speed=0.586x    frame= 3100 fps= 15 q=23.0 size=   12032KiB time=00:02:03.92 bitrate= 795.4kbits/s speed=0.586x    frame= 3105 fps= 15 q=23.0 size=   12032KiB time=00:02:04.12 bitrate= 794.1kbits/s speed=0.586x    frame= 3110 fps= 15 q=23.0 size=   12032KiB time=00:02:04.32 bitrate= 792.8kbits/s speed=0.585x    frame= 3116 fps= 15 q=23.0 size=   12032KiB time=00:02:04.56 bitrate= 791.3kbits/s speed=0.585x    frame= 3120 fps= 15 q=23.0 size=   12032KiB time=00:02:04.72 bitrate= 790.3kbits/s speed=0.584x    frame= 3125 fps= 15 q=23.0 size=   12032KiB time=00:02:04.92 bitrate= 789.0kbits/s speed=0.584x    frame= 3130 fps= 15 q=23.0 size=   12032KiB time=00:02:05.12 bitrate= 787.8kbits/s speed=0.583x    frame= 3135 fps= 15 q=23.0 size=   12032KiB time=00:02:05.32 bitrate= 786.5kbits/s speed=0.583x    frame= 3140 fps= 15 q=23.0 size=   12032KiB time=00:02:05.52 bitrate= 785.3kbits/s speed=0.583x    frame= 3146 fps= 15 q=23.0 size=   12032KiB time=00:02:05.76 bitrate= 783.8kbits/s speed=0.582x    frame= 3152 fps= 15 q=23.0 size=   12032KiB time=00:02:06.00 bitrate= 782.3kbits/s speed=0.582x    frame= 3158 fps= 15 q=23.0 size=   12032KiB time=00:02:06.24 bitrate= 780.8kbits/s speed=0.582x    frame= 3166 fps= 15 q=23.0 size=   12032KiB time=00:02:06.56 bitrate= 778.8kbits/s speed=0.582x    frame= 3174 fps= 15 q=23.0 size=   12032KiB time=00:02:06.88 bitrate= 776.8kbits/s speed=0.582x    frame= 3184 fps= 15 q=23.0 size=   12032KiB time=00:02:07.28 bitrate= 774.4kbits/s speed=0.583x    frame= 3192 fps= 15 q=23.0 size=   12032KiB time=00:02:07.60 bitrate= 772.5kbits/s speed=0.583x    frame= 3202 fps= 15 q=23.0 size=   12032KiB time=00:02:08.00 bitrate= 770.1kbits/s speed=0.583x    frame= 3210 fps= 15 q=23.0 size=   12032KiB time=00:02:08.32 bitrate= 768.1kbits/s speed=0.583x    frame= 3218 fps= 15 q=23.0 size=   12032KiB time=00:02:08.64 bitrate= 766.2kbits/s speed=0.583x    frame= 3228 fps= 15 q=23.0 size=   12032KiB time=00:02:09.04 bitrate= 763.8kbits/s speed=0.584x    frame= 3238 fps= 15 q=23.0 size=   12032KiB time=00:02:09.44 bitrate= 761.5kbits/s speed=0.584x    frame= 3244 fps= 15 q=23.0 size=   12032KiB time=00:02:09.68 bitrate= 760.1kbits/s speed=0.584x    frame= 3250 fps= 15 q=23.0 size=   12288KiB time=00:02:09.92 bitrate= 774.8kbits/s speed=0.584x    frame= 3263 fps= 15 q=23.0 size=   12800KiB time=00:02:10.44 bitrate= 803.9kbits/s speed=0.585x    frame= 3273 fps= 15 q=23.0 size=   12800KiB time=00:02:10.84 bitrate= 801.4kbits/s speed=0.585x    frame= 3282 fps= 15 q=23.0 size=   12800KiB time=00:02:11.20 bitrate= 799.2kbits/s speed=0.586x    frame= 3292 fps= 15 q=23.0 size=   12800KiB time=00:02:11.60 bitrate= 796.8kbits/s speed=0.586x    frame= 3300 fps= 15 q=23.0 size=   12800KiB time=00:02:11.92 bitrate= 794.9kbits/s speed=0.586x    frame= 3308 fps= 15 q=23.0 size=   12800KiB time=00:02:12.24 bitrate= 792.9kbits/s speed=0.586x    frame= 3318 fps= 15 q=23.0 size=   12800KiB time=00:02:12.64 bitrate= 790.5kbits/s speed=0.587x    frame= 3328 fps= 15 q=23.0 size=   12800KiB time=00:02:13.04 bitrate= 788.2kbits/s speed=0.587x    frame= 3336 fps= 15 q=23.0 size=   12800KiB time=00:02:13.36 bitrate= 786.3kbits/s speed=0.587x    frame= 3344 fps= 15 q=23.0 size=   12800KiB time=00:02:13.68 bitrate= 784.4kbits/s speed=0.588x    frame= 3354 fps= 15 q=23.0 size=   12800KiB time=00:02:14.08 bitrate= 782.1kbits/s speed=0.588x    frame= 3363 fps= 15 q=23.0 size=   12800KiB time=00:02:14.44 bitrate= 780.0kbits/s speed=0.588x    frame= 3372 fps= 15 q=23.0 size=   12800KiB time=00:02:14.80 bitrate= 777.9kbits/s speed=0.589x    frame= 3382 fps= 15 q=23.0 size=   12800KiB time=00:02:15.20 bitrate= 775.6kbits/s speed=0.589x    frame= 3390 fps= 15 q=23.0 size=   12800KiB time=00:02:15.52 bitrate= 773.7kbits/s speed=0.589x    frame= 3398 fps= 15 q=23.0 size=   13056KiB time=00:02:15.84 bitrate= 787.4kbits/s speed=0.589x    frame= 3408 fps= 15 q=23.0 size=   13056KiB time=00:02:16.24 bitrate= 785.0kbits/s speed=0.59x    frame= 3418 fps= 15 q=23.0 size=   13056KiB time=00:02:16.64 bitrate= 782.8kbits/s speed=0.59x    frame= 3426 fps= 15 q=23.0 size=   13056KiB time=00:02:16.96 bitrate= 780.9kbits/s speed=0.59x    frame= 3436 fps= 15 q=23.0 size=   13056KiB time=00:02:17.36 bitrate= 778.6kbits/s speed=0.591x    frame= 3456 fps= 15 q=23.0 size=   13056KiB time=N/A bitrate=N/A speed=N/A    [out#0/mp4 @ 0x5555850f8100] video:7651KiB audio:5499KiB subtitle:0KiB other streams:0KiB global headers:0KiB muxing overhead: 0.795273%
frame= 3490 fps= 15 q=-1.0 Lsize=   13255KiB time=00:02:17.90 bitrate= 787.4kbits/s speed=0.591x    
[libx264 @ 0x5555850f3f10] frame I:14    Avg QP:14.37  size:538465
[libx264 @ 0x5555850f3f10] frame P:879   Avg QP:19.22  size:    96
[libx264 @ 0x5555850f3f10] frame B:2597  Avg QP:27.90  size:    81
[libx264 @ 0x5555850f3f10] consecutive B-frames:  0.8%  0.0%  0.1% 99.1%
[libx264 @ 0x5555850f3f10] mb I  I16..4: 16.0%  1.2% 82.8%
[libx264 @ 0x5555850f3f10] mb P  I16..4:  0.0%  0.0%  0.0%  P16..4:  0.0%  0.0%  0.0%  0.0%  0.0%    skip:100.0%
[libx264 @ 0x5555850f3f10] mb B  I16..4:  0.0%  0.0%  0.0%  B16..8:  0.1%  0.0%  0.0%  direct: 0.0%  skip:99.8%  L0:52.8% L1:47.2% BI: 0.0%
[libx264 @ 0x5555850f3f10] 8x8 transform intra:7.1% inter:7.0%
[libx264 @ 0x5555850f3f10] coded y,uvDC,uvAC intra: 61.5% 0.0% 0.0% inter: 0.0% 0.0% 0.0%
[libx264 @ 0x5555850f3f10] i16 v,h,dc,p: 85% 10%  5%  0%
[libx264 @ 0x5555850f3f10] i8 v,h,dc,ddl,ddr,vr,hd,vl,hu: 10%  2% 87%  0%  0%  0%  0%  0%  0%
[libx264 @ 0x5555850f3f10] i4 v,h,dc,ddl,ddr,vr,hd,vl,hu: 30% 16% 16%  6%  5%  7%  6%  7%  5%
[libx264 @ 0x5555850f3f10] i8c dc,h,v,p: 100%  0%  0%  0%
[libx264 @ 0x5555850f3f10] Weighted P-Frames: Y:0.0% UV:0.0%
[libx264 @ 0x5555850f3f10] ref P L0: 97.1%  0.5%  2.4%  0.1%
[libx264 @ 0x5555850f3f10] ref B L0: 87.7% 12.3%  0.0%
[libx264 @ 0x5555850f3f10] ref B L1: 95.9%  4.1%
[libx264 @ 0x5555850f3f10] kb/s:448.93
[aac @ 0x5555851075f0] Qavg: 4089.742
